<?xml version="1.0" standalone="no"?>
<!DOCTYPE svg PUBLIC "-//W3C//DTD SVG 20010904//EN"
 "http://www.w3.org/TR/2001/REC-SVG-20010904/DTD/svg10.dtd">
<svg version="1.0" xmlns="http://www.w3.org/2000/svg"
 width="140.000000pt" height="130.000000pt" viewBox="0 0 140.000000 130.000000"
 preserveAspectRatio="xMidYMid meet">
<metadata>
Created by potrace 1.16, written by Peter Selinger 2001-2019
</metadata>
<g transform="translate(0.000000,130.000000) scale(0.100000,-0.100000)"
fill="#000000" stroke="none">
<path d="M45 1210 c-3 -5 12 -14 34 -20 26 -7 52 -25 77 -53 31 -36 112 -190
194 -372 12 -27 81 -176 153 -330 71 -154 138 -298 147 -321 18 -42 39 -58 64
-48 8 3 71 143 141 312 293 705 296 711 352 763 39 35 55 43 107 51 11 2 21 9
24 16 3 9 -52 12 -252 12 -142 0 -256 -4 -256 -9 0 -11 35 -21 75 -21 52 0
107 -21 137 -50 48 -49 41 -80 -83 -375 -23 -55 -74 -178 -113 -274 -39 -96
-76 -176 -82 -178 -6 -2 -23 25 -39 59 -15 35 -58 128 -96 207 -38 79 -69 145
-69 146 0 2 -30 66 -66 142 -93 195 -104 221 -104 254 0 36 33 59 92 66 67 7
88 13 88 23 0 13 -517 14 -525 0z"/>
</g>
</svg>
